<?xml version="1.0" encoding="utf-8"?><!-- Uploaded to: SVG Repo, www.svgrepo.com, Generator: SVG Repo Mixer Tools -->
<svg width="800px" height="800px" viewBox="0 0 24 24" fill="none" xmlns="http://www.w3.org/2000/svg">
<path fill-rule="evenodd" clip-rule="evenodd" d="M4.875 11V14C4.875 16.7614 7.05761 19 9.75 19H13.65C14.9429 19 16.1829 18.4732 17.0971 17.5355C18.0114 16.5979 18.525 15.3261 18.525 14V11C18.5263 9.67351 18.0131 8.40097 17.0986 7.463C16.1841 6.52503 14.9433 5.99867 13.65 6H9.75C8.45668 5.99867 7.21595 6.52503 6.30143 7.463C5.38691 8.40097 4.87371 9.67351 4.875 11V11Z" stroke="#000000" stroke-width="1.5" stroke-linecap="round" stroke-linejoin="round"/>
<path d="M8.02502 8C8.02502 8.41421 8.36081 8.75 8.77502 8.75C9.18924 8.75 9.52502 8.41421 9.52502 8H8.02502ZM9.52502 4C9.52502 3.58579 9.18924 3.25 8.77502 3.25C8.36081 3.25 8.02502 3.58579 8.02502 4H9.52502ZM13.875 8C13.875 8.41421 14.2108 8.75 14.625 8.75C15.0392 8.75 15.375 8.41421 15.375 8H13.875ZM15.375 4C15.375 3.58579 15.0392 3.25 14.625 3.25C14.2108 3.25 13.875 3.58579 13.875 4H15.375ZM8.39065 11.311C8.39065 11.7252 8.72644 12.061 9.14065 12.061C9.55486 12.061 9.89065 11.7252 9.89065 11.311H8.39065ZM11.7 11.311L12.449 11.3503C12.4497 11.3372 12.45 11.3241 12.45 11.311H11.7ZM11.1605 12.4396L11.6581 13.0007L11.6581 13.0007L11.1605 12.4396ZM9.99377 12.824L9.92368 12.0773C9.53831 12.1135 9.24377 12.4369 9.24377 12.824C9.24378 13.2111 9.53834 13.5346 9.92371 13.5707L9.99377 12.824ZM11.1602 13.2081L11.6576 12.6468L11.6576 12.6468L11.1602 13.2081ZM11.7 14.336H12.45C12.45 14.3227 12.4497 14.3095 12.449 14.2962L11.7 14.336ZM9.89065 14.336C9.89065 13.9218 9.55486 13.586 9.14065 13.586C8.72644 13.586 8.39065 13.9218 8.39065 14.336H9.89065ZM12.9089 10.3747C12.5989 10.6494 12.5702 11.1234 12.845 11.4334C13.1197 11.7434 13.5937 11.772 13.9037 11.4973L12.9089 10.3747ZM14.2594 10.18H15.0094C15.0094 9.88486 14.8363 9.61717 14.5672 9.49606C14.298 9.37494 13.9829 9.42294 13.762 9.61868L14.2594 10.18ZM13.5094 15.474C13.5094 15.8882 13.8452 16.224 14.2594 16.224C14.6736 16.224 15.0094 15.8882 15.0094 15.474H13.5094ZM9.52502 8V4H8.02502V8H9.52502ZM15.375 8V4H13.875V8H15.375ZM9.89065 11.311C9.89065 11.1708 9.93909 11.1018 10.0044 11.0504C10.0895 10.9834 10.2374 10.9278 10.4203 10.9278C10.6033 10.9278 10.7512 10.9834 10.8362 11.0504C10.9016 11.1018 10.95 11.1708 10.95 11.311H12.45C12.45 10.6957 12.1785 10.198 11.764 9.87174C11.3692 9.56096 10.8773 9.42775 10.4203 9.42775C9.96341 9.42775 9.47146 9.56096 9.07665 9.87174C8.66213 10.198 8.39065 10.6957 8.39065 11.311H9.89065ZM10.9511 11.2717C10.9385 11.5101 10.8321 11.7284 10.6629 11.8784L11.6581 13.0007C12.1327 12.5799 12.4158 11.9834 12.449 11.3503L10.9511 11.2717ZM10.6629 11.8784C10.4946 12.0277 10.2783 12.0974 10.0638 12.0773L9.92371 13.5707C10.5567 13.6301 11.1828 13.4222 11.6581 13.0007L10.6629 11.8784ZM10.0639 13.5707C10.2782 13.5506 10.4944 13.6202 10.6628 13.7694L11.6576 12.6468C11.1824 12.2256 10.5564 12.0179 9.92368 12.0773L10.0639 13.5707ZM10.6628 13.7694C10.8319 13.9193 10.9384 14.1375 10.9511 14.3758L12.449 14.2962C12.4154 13.6634 12.1321 13.0673 11.6576 12.6468L10.6628 13.7694ZM10.95 14.336C10.95 14.4771 10.9012 14.5465 10.8358 14.598C10.7508 14.6651 10.603 14.7207 10.4203 14.7207C10.2376 14.7207 10.0899 14.6651 10.0048 14.598C9.93943 14.5465 9.89065 14.4771 9.89065 14.336H8.39065C8.39065 14.9514 8.66179 15.4494 9.07628 15.7761C9.4711 16.0873 9.96318 16.2207 10.4203 16.2207C10.8775 16.2207 11.3696 16.0873 11.7644 15.7761C12.1789 15.4494 12.45 14.9514 12.45 14.336H10.95ZM13.9037 11.4973L14.7568 10.7413L13.762 9.61868L12.9089 10.3747L13.9037 11.4973ZM13.5094 10.18V15.474H15.0094V10.18H13.5094Z" fill="#000000"/>
</svg>